<svg enable-background="new 0 0 16 16" height="16" viewBox="0 0 16 16" width="16" xmlns="http://www.w3.org/2000/svg"><g fill="#febe39"><path d="m12.6 9.9c-.3-.3-.7-.5-1.1-.5s-.9.2-1.2.5l-1 1.1c-.1 0-.2-.1-.3-.1-.1-.1-.2-.1-.3-.2-1.1-.7-2-1.5-2.8-2.5-.4-.5-.7-1-.9-1.5.3-.3.5-.5.8-.8.1-.1.2-.2.3-.3.6-.6.7-1.5.2-2.2 0-.1-.1-.1-.2-.2l-1-.8c-.1-.1-.2-.2-.3-.4-.2-.2-.4-.4-.6-.6-.3-.3-.7-.5-1.2-.5-.4 0-.8.2-1.1.5l-1.2 1.2c-.4.4-.6 1-.7 1.6 0 .8.1 1.7.4 2.5.7 1.5 1.5 3 2.6 4.3 1.4 1.7 3.3 3.2 5.3 4.1.9.5 1.9.8 3 .9h.2c.7 0 1.5-.3 1.9-.8.2-.2.4-.4.6-.6.1-.1.3-.3.4-.4.3-.3.5-.7.5-1.2 0-.4-.2-.9-.5-1.2zm1.2 3.6c-.1.1-.3.3-.4.4-.2.2-.4.4-.7.7-.3.4-.8.6-1.3.5-.1 0-.1 0-.2 0-.9-.1-1.8-.4-2.6-.8-1.9-.9-3.6-2.3-5-3.9-1-1.2-1.9-2.6-2.4-4-.2-.7-.3-1.4-.3-2.2 0-.4.2-.7.5-1l1.2-1.2c.1-.1.3-.2.5-.2s.4.1.5.2c.2.3.4.5.6.7.1.1.2.2.3.3l.9.9c.3.2.4.6.1.9 0 .1-.1.1-.1.1-.1.2-.2.3-.3.4-.3.3-.5.5-.8.8-.3.2-.3.5-.2.8.3.6.6 1.2 1.1 1.8.8 1.1 1.9 2 3 2.7.1.1.3.2.4.2.1.1.2.1.3.2.1.1.2.1.3.1.2 0 .4-.1.5-.2l1.2-1.2c.1-.1.3-.2.5-.3.2 0 .4.1.5.2l1.9 1.9c.3.2.3.6.1.9 0 .2 0 .2-.1.3z"/><path d="m8.6 3.8c1.8.3 3.2 1.7 3.5 3.5 0 .2.2.4.4.4h.1c.2 0 .4-.3.4-.5-.3-2.2-2-3.9-4.2-4.3-.3 0-.5.1-.5.4-.1.2.1.5.3.5z"/><path d="m16 7.1c-.7-3.6-3.5-6.5-7.1-7.1-.2 0-.5.1-.5.4 0 .2.1.5.4.5 3.2.6 5.7 3.1 6.3 6.3 0 .2.2.4.4.4h.1c.2-.1.4-.3.4-.5z"/></g></svg>