<svg enable-background="new 0 0 1920 16" height="16" viewBox="0 0 1920 16" width="1920" xmlns="http://www.w3.org/2000/svg"><g fill="#febe39"><path d="m0 7.5h929.6v1.1h-929.6zm990.4 0h929.6v1.1h-929.6z"/><path d="m963.3 3.3v9.3c0 1.8-1.5 3.3-3.3 3.3s-3.3-1.5-3.3-3.3v-9.3c0-1.8 1.5-3.3 3.3-3.3 1.9 0 3.3 1.5 3.3 3.3z"/><path d="m971.8 4v8c0 1.6-1.3 2.8-2.9 2.8-1.5 0-2.8-1.3-2.8-2.8v-8c0-1.6 1.3-2.8 2.9-2.8 1.6.1 2.8 1.3 2.8 2.8z"/><path d="m978.1 4.7v6.5c0 1.3-1.1 2.3-2.3 2.3-1.3 0-2.3-1.1-2.3-2.3v-6.5c0-1.3 1.1-2.3 2.3-2.3 1.3 0 2.3 1 2.3 2.3z"/><path d="m983 5.4v5.1c0 1-.8 1.9-1.8 1.9s-1.9-.8-1.9-1.8v-.1-5.1c0-1 .8-1.9 1.8-1.9s1.9.8 1.9 1.9z"/><path d="m987 6.1v3.7c0 .7-.6 1.4-1.3 1.4s-1.4-.6-1.4-1.3c0 0 0 0 0-.1v-3.7c0-.7.6-1.4 1.3-1.4s1.4.6 1.4 1.4z"/><path d="m990.4 6.8v2.3c0 .5-.4.8-.8.8-.5 0-.8-.4-.8-.8v-2.3c0-.5.4-.8.8-.8s.8.3.8.8z"/><path d="m948.2 4v8c0 1.6 1.3 2.8 2.8 2.8 1.6 0 2.8-1.3 2.8-2.8v-8c0-1.6-1.3-2.8-2.8-2.8-1.6 0-2.8 1.3-2.8 2.8z"/><path d="m941.9 4.7v6.5c0 1.3 1.1 2.3 2.3 2.3 1.3 0 2.3-1.1 2.3-2.3v-6.5c0-1.3-1.1-2.3-2.3-2.3-1.3 0-2.3 1-2.3 2.3z"/><path d="m937 5.4v5.1c0 1 .8 1.8 1.8 1.8s1.8-.8 1.8-1.8v-5.1c0-1-.8-1.8-1.8-1.8s-1.8.8-1.8 1.8z"/><path d="m933 6.1v3.7c0 .7.6 1.4 1.3 1.4s1.4-.6 1.4-1.3c0 0 0 0 0-.1v-3.7c0-.7-.6-1.4-1.3-1.4s-1.4.6-1.4 1.4z"/><path d="m929.6 6.8v2.3c0 .5.4.8.8.8.5 0 .8-.4.8-.8v-2.3c0-.5-.4-.8-.8-.8s-.8.3-.8.8z"/></g></svg>