<?xml version="1.0" encoding="UTF-8" standalone="no"?><svg xmlns:svg="http://www.w3.org/2000/svg" xmlns="http://www.w3.org/2000/svg" xmlns:xlink="http://www.w3.org/1999/xlink" version="1.0" width="120px" height="15px" viewBox="0 0 128 16" xml:space="preserve"><path fill="#fff" fill-opacity="0.42" d="M6.4,4.8A3.2,3.2,0,1,1,3.2,8,3.2,3.2,0,0,1,6.4,4.8Zm12.8,0A3.2,3.2,0,1,1,16,8,3.2,3.2,0,0,1,19.2,4.80CBCD17A3D"/><g><path fill="#fff" fill-opacity="1" d="M-42.7,3.84A4.16,4.16,0,0,1-38.54,8a4.16,4.16,0,0,1-4.16,4.16A4.16,4.16,0,0,1-46.86,8,4.16,4.16,0,0,0319D1DA46"/><animateTransform attributeName="transform" type="translate" values="23 0;36 0;49 0;62 0;74.5 0;87.5 0;100 0;113 0;125.5 0;138.5 0;151.5 0;164.5 0;178 0" calcMode="discrete" dur="1170ms" repeatCount="indefinite"/></g></svg>
